<svg xmlns="http://www.w3.org/2000/svg" xmlns:xlink="http://www.w3.org/1999/xlink" width="500" zoomAndPan="magnify" viewBox="0 0 375 374.999991" height="500" preserveAspectRatio="xMidYMid meet" version="1.0"><defs><g/><clipPath id="id1"><path d="M 140.894531 122.195312 L 240.644531 122.195312 L 240.644531 252.695312 L 140.894531 252.695312 Z M 140.894531 122.195312 " clip-rule="nonzero"/></clipPath></defs><rect x="-37.5" width="450" fill="#ffffff" y="-37.499999" height="449.999989" fill-opacity="1"/><rect x="-37.5" width="450" fill="#5271ff" y="-37.499999" height="449.999989" fill-opacity="1"/><rect x="-37.5" width="450" fill="#ffffff" y="-37.499999" height="449.999989" fill-opacity="1"/><rect x="-37.5" width="450" fill="#5271ff" y="-37.499999" height="449.999989" fill-opacity="1"/><g clip-path="url(#id1)"><path fill="#e4ebf0" d="M 233.882812 252.703125 L 147.660156 252.703125 C 143.925781 252.703125 140.894531 249.667969 140.894531 245.921875 L 140.894531 128.976562 C 140.894531 125.234375 143.925781 122.199219 147.660156 122.199219 L 233.882812 122.199219 C 237.617188 122.199219 240.644531 125.234375 240.644531 128.976562 L 240.644531 245.921875 C 240.644531 249.667969 237.617188 252.703125 233.882812 252.703125 " fill-opacity="1" fill-rule="nonzero"/></g><path fill="#7cbdd5" d="M 228.8125 152.707031 L 152.730469 152.707031 C 150.863281 152.707031 149.351562 151.1875 149.351562 149.316406 L 149.351562 134.0625 C 149.351562 132.191406 150.863281 130.671875 152.730469 130.671875 L 228.8125 130.671875 C 230.679688 130.671875 232.191406 132.191406 232.191406 134.0625 L 232.191406 149.316406 C 232.191406 151.1875 230.679688 152.707031 228.8125 152.707031 " fill-opacity="1" fill-rule="nonzero"/><path fill="#cecdd0" d="M 166.257812 244.226562 L 149.351562 244.226562 L 149.351562 227.28125 L 166.257812 227.28125 L 166.257812 244.226562 " fill-opacity="1" fill-rule="nonzero"/><path fill="#3f5267" d="M 159.683594 235.753906 C 159.683594 235.167969 159.652344 234.621094 159.585938 234.109375 C 159.523438 233.601562 159.417969 233.160156 159.273438 232.785156 C 159.125 232.410156 158.933594 232.113281 158.695312 231.898438 C 158.457031 231.679688 158.160156 231.570312 157.804688 231.570312 C 157.445312 231.570312 157.148438 231.679688 156.902344 231.898438 C 156.660156 232.113281 156.464844 232.410156 156.320312 232.785156 C 156.171875 233.160156 156.070312 233.601562 156.007812 234.109375 C 155.949219 234.621094 155.921875 235.167969 155.921875 235.753906 C 155.921875 236.339844 155.949219 236.886719 156.007812 237.398438 C 156.070312 237.90625 156.171875 238.347656 156.320312 238.722656 C 156.464844 239.097656 156.660156 239.394531 156.902344 239.609375 C 157.148438 239.828125 157.445312 239.933594 157.804688 239.933594 C 158.160156 239.933594 158.457031 239.828125 158.695312 239.609375 C 158.933594 239.394531 159.125 239.097656 159.273438 238.722656 C 159.417969 238.347656 159.523438 237.90625 159.585938 237.398438 C 159.652344 236.886719 159.683594 236.339844 159.683594 235.753906 Z M 161.714844 235.753906 C 161.714844 237.652344 161.367188 239.109375 160.675781 240.121094 C 159.984375 241.136719 159.023438 241.644531 157.804688 241.644531 C 156.578125 241.644531 155.621094 241.136719 154.929688 240.121094 C 154.238281 239.109375 153.890625 237.652344 153.890625 235.753906 C 153.890625 234.808594 153.980469 233.972656 154.160156 233.238281 C 154.335938 232.507812 154.597656 231.890625 154.9375 231.394531 C 155.28125 230.894531 155.6875 230.515625 156.171875 230.253906 C 156.652344 229.992188 157.195312 229.863281 157.804688 229.863281 C 159.023438 229.863281 159.984375 230.371094 160.675781 231.382812 C 161.367188 232.398438 161.714844 233.855469 161.714844 235.753906 " fill-opacity="1" fill-rule="nonzero"/><path fill="#cecdd0" d="M 166.257812 222.195312 L 149.351562 222.195312 L 149.351562 205.246094 L 166.257812 205.246094 L 166.257812 222.195312 " fill-opacity="1" fill-rule="nonzero"/><path fill="#3f5267" d="M 155.328125 210.425781 C 155.957031 210.175781 156.585938 209.855469 157.21875 209.464844 C 157.851562 209.074219 158.410156 208.613281 158.898438 208.082031 L 160.277344 208.082031 L 160.277344 219.359375 L 158.3125 219.359375 L 158.3125 210.71875 C 158.023438 210.945312 157.65625 211.167969 157.210938 211.386719 C 156.765625 211.601562 156.339844 211.78125 155.929688 211.921875 L 155.328125 210.425781 " fill-opacity="1" fill-rule="nonzero"/><path fill="#cecdd0" d="M 188.234375 222.195312 L 171.328125 222.195312 L 171.328125 205.246094 L 188.234375 205.246094 L 188.234375 222.195312 " fill-opacity="1" fill-rule="nonzero"/><path fill="#3f5267" d="M 183.140625 211.140625 C 183.140625 211.53125 183.058594 211.914062 182.898438 212.289062 C 182.738281 212.664062 182.527344 213.027344 182.273438 213.378906 C 182.019531 213.730469 181.730469 214.074219 181.402344 214.40625 C 181.082031 214.734375 180.753906 215.058594 180.433594 215.371094 C 180.257812 215.535156 180.0625 215.730469 179.847656 215.957031 C 179.628906 216.1875 179.425781 216.414062 179.230469 216.640625 C 179.035156 216.871094 178.867188 217.089844 178.726562 217.300781 C 178.585938 217.511719 178.511719 217.6875 178.5 217.828125 L 183.5 217.828125 L 183.5 219.488281 L 176.339844 219.488281 C 176.332031 219.402344 176.324219 219.296875 176.324219 219.171875 C 176.324219 219.046875 176.324219 218.953125 176.324219 218.886719 C 176.324219 218.367188 176.410156 217.886719 176.578125 217.445312 C 176.742188 217.007812 176.964844 216.597656 177.234375 216.21875 C 177.503906 215.839844 177.808594 215.480469 178.144531 215.144531 C 178.476562 214.808594 178.8125 214.476562 179.148438 214.152344 C 179.410156 213.902344 179.660156 213.660156 179.894531 213.421875 C 180.132812 213.183594 180.34375 212.945312 180.519531 212.714844 C 180.699219 212.480469 180.84375 212.242188 180.949219 211.996094 C 181.058594 211.753906 181.113281 211.5 181.113281 211.238281 C 181.113281 210.675781 180.949219 210.273438 180.625 210.035156 C 180.300781 209.796875 179.90625 209.675781 179.441406 209.675781 C 179.136719 209.675781 178.855469 209.722656 178.597656 209.808594 C 178.335938 209.894531 178.109375 210 177.90625 210.117188 C 177.707031 210.238281 177.53125 210.359375 177.378906 210.484375 C 177.230469 210.609375 177.113281 210.707031 177.039062 210.785156 L 176.066406 209.402344 C 176.519531 208.96875 177.050781 208.617188 177.664062 208.351562 C 178.273438 208.085938 178.933594 207.953125 179.636719 207.953125 C 180.835938 207.953125 181.722656 208.238281 182.289062 208.808594 C 182.859375 209.375 183.140625 210.15625 183.140625 211.140625 " fill-opacity="1" fill-rule="nonzero"/><path fill="#cecdd0" d="M 210.214844 222.195312 L 193.308594 222.195312 L 193.308594 205.246094 L 210.214844 205.246094 L 210.214844 222.195312 " fill-opacity="1" fill-rule="nonzero"/><path fill="#3f5267" d="M 201.101562 219.613281 C 200.8125 219.613281 200.511719 219.59375 200.203125 219.554688 C 199.894531 219.515625 199.601562 219.46875 199.324219 219.410156 C 199.050781 219.347656 198.796875 219.285156 198.570312 219.214844 C 198.34375 219.144531 198.171875 219.074219 198.050781 219.007812 L 198.441406 217.332031 C 198.667969 217.441406 199 217.5625 199.429688 217.699219 C 199.863281 217.835938 200.398438 217.902344 201.039062 217.902344 C 201.894531 217.902344 202.507812 217.738281 202.890625 217.40625 C 203.265625 217.078125 203.457031 216.632812 203.457031 216.082031 C 203.457031 215.722656 203.382812 215.425781 203.238281 215.1875 C 203.09375 214.949219 202.890625 214.753906 202.636719 214.609375 C 202.382812 214.460938 202.089844 214.359375 201.761719 214.300781 C 201.429688 214.238281 201.082031 214.210938 200.714844 214.210938 L 200.046875 214.210938 L 200.046875 212.617188 L 200.859375 212.617188 C 201.109375 212.617188 201.359375 212.589844 201.613281 212.542969 C 201.867188 212.492188 202.097656 212.40625 202.304688 212.28125 C 202.507812 212.15625 202.675781 211.992188 202.808594 211.785156 C 202.9375 211.578125 203.003906 211.3125 203.003906 210.988281 C 203.003906 210.726562 202.953125 210.503906 202.855469 210.320312 C 202.757812 210.136719 202.632812 209.984375 202.472656 209.863281 C 202.320312 209.746094 202.136719 209.660156 201.929688 209.605469 C 201.726562 209.550781 201.511719 209.523438 201.28125 209.523438 C 200.796875 209.523438 200.363281 209.597656 199.984375 209.742188 C 199.605469 209.890625 199.269531 210.054688 198.976562 210.238281 L 198.261719 208.777344 C 198.414062 208.675781 198.597656 208.574219 198.816406 208.464844 C 199.03125 208.355469 199.269531 208.253906 199.535156 208.15625 C 199.800781 208.058594 200.085938 207.980469 200.390625 207.921875 C 200.691406 207.863281 201.011719 207.832031 201.347656 207.832031 C 201.972656 207.832031 202.515625 207.90625 202.96875 208.058594 C 203.425781 208.210938 203.800781 208.425781 204.097656 208.703125 C 204.394531 208.976562 204.617188 209.304688 204.761719 209.679688 C 204.910156 210.050781 204.980469 210.460938 204.980469 210.90625 C 204.980469 211.425781 204.839844 211.894531 204.554688 212.304688 C 204.265625 212.71875 203.894531 213.03125 203.441406 213.25 C 204.023438 213.457031 204.507812 213.796875 204.894531 214.273438 C 205.277344 214.753906 205.46875 215.363281 205.46875 216.113281 C 205.46875 216.613281 205.382812 217.078125 205.210938 217.503906 C 205.035156 217.933594 204.769531 218.300781 204.414062 218.613281 C 204.058594 218.921875 203.605469 219.164062 203.058594 219.34375 C 202.511719 219.523438 201.859375 219.613281 201.101562 219.613281 " fill-opacity="1" fill-rule="nonzero"/><path fill="#cecdd0" d="M 166.257812 200.160156 L 149.351562 200.160156 L 149.351562 183.210938 L 166.257812 183.210938 L 166.257812 200.160156 " fill-opacity="1" fill-rule="nonzero"/><path fill="#3f5267" d="M 158.679688 188.472656 C 158.421875 188.789062 158.152344 189.125 157.875 189.480469 C 157.601562 189.839844 157.332031 190.214844 157.074219 190.605469 C 156.8125 190.996094 156.5625 191.394531 156.328125 191.800781 C 156.089844 192.207031 155.871094 192.613281 155.675781 193.011719 L 158.679688 193.011719 Z M 160.59375 186.050781 L 160.59375 193.011719 L 161.859375 193.011719 L 161.859375 194.625 L 160.59375 194.625 L 160.59375 197.324219 L 158.679688 197.324219 L 158.679688 194.625 L 153.746094 194.625 L 153.746094 193.226562 C 153.960938 192.746094 154.25 192.199219 154.613281 191.582031 C 154.976562 190.964844 155.378906 190.328125 155.820312 189.675781 C 156.265625 189.027344 156.738281 188.386719 157.234375 187.757812 C 157.734375 187.128906 158.230469 186.558594 158.730469 186.050781 L 160.59375 186.050781 " fill-opacity="1" fill-rule="nonzero"/><path fill="#cecdd0" d="M 188.234375 200.160156 L 171.328125 200.160156 L 171.328125 183.210938 L 188.234375 183.210938 L 188.234375 200.160156 " fill-opacity="1" fill-rule="nonzero"/><path fill="#3f5267" d="M 181.429688 193.980469 C 181.429688 193.625 181.359375 193.304688 181.21875 193.023438 C 181.078125 192.738281 180.832031 192.5 180.480469 192.304688 C 180.128906 192.109375 179.65625 191.964844 179.066406 191.867188 C 178.476562 191.769531 177.734375 191.71875 176.835938 191.71875 C 176.953125 190.679688 177.046875 189.6875 177.113281 188.75 C 177.175781 187.8125 177.230469 186.871094 177.273438 185.925781 L 183.019531 185.925781 L 183.019531 187.585938 L 178.945312 187.585938 C 178.9375 187.769531 178.921875 187.980469 178.90625 188.214844 C 178.890625 188.445312 178.875 188.683594 178.855469 188.921875 C 178.839844 189.160156 178.820312 189.386719 178.800781 189.605469 C 178.777344 189.820312 178.757812 190.007812 178.734375 190.15625 C 180.335938 190.246094 181.519531 190.613281 182.28125 191.257812 C 183.042969 191.902344 183.425781 192.785156 183.425781 193.898438 C 183.425781 194.410156 183.339844 194.882812 183.164062 195.316406 C 182.992188 195.75 182.726562 196.125 182.371094 196.4375 C 182.015625 196.753906 181.5625 197 181.023438 197.179688 C 180.484375 197.359375 179.847656 197.445312 179.125 197.445312 C 178.832031 197.445312 178.535156 197.425781 178.230469 197.382812 C 177.929688 197.339844 177.640625 197.285156 177.363281 197.226562 C 177.085938 197.167969 176.839844 197.105469 176.625 197.039062 C 176.410156 196.976562 176.246094 196.914062 176.136719 196.863281 L 176.511719 195.203125 C 176.738281 195.3125 177.066406 195.425781 177.492188 195.550781 C 177.921875 195.675781 178.441406 195.738281 179.058594 195.738281 C 179.480469 195.738281 179.84375 195.691406 180.148438 195.601562 C 180.449219 195.507812 180.695312 195.378906 180.886719 195.21875 C 181.074219 195.054688 181.214844 194.867188 181.300781 194.65625 C 181.386719 194.445312 181.429688 194.21875 181.429688 193.980469 " fill-opacity="1" fill-rule="nonzero"/><path fill="#cecdd0" d="M 210.214844 200.160156 L 193.308594 200.160156 L 193.308594 183.210938 L 210.214844 183.210938 L 210.214844 200.160156 " fill-opacity="1" fill-rule="nonzero"/><path fill="#3f5267" d="M 201.652344 191.753906 C 201.339844 191.753906 201.039062 191.78125 200.746094 191.835938 C 200.453125 191.890625 200.1875 191.96875 199.953125 192.078125 C 199.941406 192.164062 199.933594 192.261719 199.925781 192.363281 C 199.921875 192.464844 199.917969 192.566406 199.917969 192.664062 C 199.917969 193.097656 199.949219 193.507812 200.007812 193.890625 C 200.066406 194.277344 200.167969 194.613281 200.316406 194.902344 C 200.460938 195.1875 200.664062 195.414062 200.914062 195.585938 C 201.171875 195.753906 201.488281 195.835938 201.867188 195.835938 C 202.179688 195.835938 202.445312 195.773438 202.667969 195.640625 C 202.890625 195.511719 203.074219 195.34375 203.210938 195.136719 C 203.351562 194.929688 203.457031 194.707031 203.519531 194.460938 C 203.585938 194.21875 203.621094 193.980469 203.621094 193.753906 C 203.621094 193.101562 203.460938 192.605469 203.148438 192.265625 C 202.835938 191.925781 202.335938 191.753906 201.652344 191.753906 Z M 201.898438 190.191406 C 202.570312 190.191406 203.140625 190.285156 203.609375 190.476562 C 204.082031 190.664062 204.464844 190.921875 204.753906 191.25 C 205.046875 191.574219 205.261719 191.949219 205.398438 192.378906 C 205.53125 192.808594 205.597656 193.253906 205.597656 193.722656 C 205.597656 194.144531 205.527344 194.578125 205.378906 195.023438 C 205.234375 195.46875 205.007812 195.871094 204.699219 196.234375 C 204.390625 196.597656 204.003906 196.898438 203.539062 197.128906 C 203.074219 197.363281 202.519531 197.480469 201.882812 197.480469 C 200.59375 197.480469 199.613281 197.054688 198.9375 196.203125 C 198.261719 195.351562 197.921875 194.175781 197.921875 192.679688 C 197.921875 191.59375 198.082031 190.632812 198.402344 189.792969 C 198.71875 188.953125 199.175781 188.242188 199.765625 187.667969 C 200.355469 187.09375 201.066406 186.65625 201.90625 186.359375 C 202.746094 186.058594 203.691406 185.90625 204.738281 185.894531 L 204.851562 187.523438 C 204.269531 187.53125 203.722656 187.59375 203.210938 187.710938 C 202.703125 187.824219 202.25 188 201.851562 188.238281 C 201.449219 188.476562 201.105469 188.785156 200.820312 189.164062 C 200.53125 189.546875 200.3125 190.011719 200.160156 190.566406 C 200.691406 190.316406 201.269531 190.191406 201.898438 190.191406 " fill-opacity="1" fill-rule="nonzero"/><path fill="#cecdd0" d="M 166.257812 178.128906 L 149.351562 178.128906 L 149.351562 161.179688 L 166.257812 161.179688 L 166.257812 178.128906 " fill-opacity="1" fill-rule="nonzero"/><path fill="#3f5267" d="M 155.683594 175.292969 C 155.75 174.46875 155.894531 173.597656 156.125 172.6875 C 156.351562 171.777344 156.628906 170.890625 156.960938 170.027344 C 157.289062 169.164062 157.652344 168.355469 158.046875 167.601562 C 158.441406 166.847656 158.832031 166.21875 159.222656 165.707031 L 154.046875 165.707031 L 154.046875 164.015625 L 161.558594 164.015625 L 161.558594 165.511719 C 161.203125 165.914062 160.8125 166.460938 160.390625 167.15625 C 159.96875 167.851562 159.570312 168.632812 159.191406 169.507812 C 158.8125 170.378906 158.484375 171.316406 158.207031 172.3125 C 157.933594 173.3125 157.761719 174.304688 157.699219 175.292969 L 155.683594 175.292969 " fill-opacity="1" fill-rule="nonzero"/><path fill="#cecdd0" d="M 188.234375 178.128906 L 171.328125 178.128906 L 171.328125 161.179688 L 188.234375 161.179688 L 188.234375 178.128906 " fill-opacity="1" fill-rule="nonzero"/><path fill="#3f5267" d="M 181.421875 166.804688 C 181.421875 166.664062 181.390625 166.511719 181.332031 166.34375 C 181.273438 166.175781 181.175781 166.019531 181.039062 165.878906 C 180.90625 165.738281 180.734375 165.617188 180.53125 165.519531 C 180.324219 165.421875 180.074219 165.375 179.78125 165.375 C 179.488281 165.375 179.238281 165.421875 179.027344 165.511719 C 178.816406 165.605469 178.644531 165.722656 178.515625 165.871094 C 178.386719 166.015625 178.289062 166.175781 178.222656 166.34375 C 178.160156 166.511719 178.128906 166.675781 178.128906 166.839844 C 178.128906 167.25 178.28125 167.640625 178.589844 168.011719 C 178.898438 168.378906 179.414062 168.671875 180.140625 168.890625 C 180.539062 168.640625 180.851562 168.355469 181.082031 168.035156 C 181.308594 167.714844 181.421875 167.304688 181.421875 166.804688 Z M 177.882812 172.371094 C 177.882812 172.535156 177.914062 172.707031 177.980469 172.890625 C 178.046875 173.074219 178.152344 173.246094 178.304688 173.394531 C 178.457031 173.546875 178.652344 173.675781 178.890625 173.777344 C 179.125 173.882812 179.425781 173.933594 179.78125 173.933594 C 180.105469 173.933594 180.386719 173.890625 180.625 173.804688 C 180.863281 173.714844 181.058594 173.601562 181.210938 173.453125 C 181.359375 173.304688 181.472656 173.136719 181.550781 172.949219 C 181.625 172.757812 181.664062 172.566406 181.664062 172.371094 C 181.664062 172.066406 181.605469 171.800781 181.484375 171.574219 C 181.367188 171.347656 181.195312 171.148438 180.976562 170.980469 C 180.753906 170.8125 180.492188 170.664062 180.1875 170.539062 C 179.882812 170.414062 179.550781 170.304688 179.179688 170.207031 C 178.792969 170.457031 178.476562 170.757812 178.238281 171.109375 C 178.003906 171.460938 177.882812 171.882812 177.882812 172.371094 Z M 183.613281 172.273438 C 183.613281 172.738281 183.53125 173.175781 183.367188 173.574219 C 183.207031 173.976562 182.960938 174.324219 182.640625 174.617188 C 182.3125 174.910156 181.910156 175.136719 181.429688 175.300781 C 180.949219 175.460938 180.394531 175.542969 179.765625 175.542969 C 179.027344 175.542969 178.417969 175.441406 177.933594 175.234375 C 177.445312 175.027344 177.054688 174.769531 176.761719 174.453125 C 176.472656 174.140625 176.261719 173.800781 176.136719 173.4375 C 176.011719 173.074219 175.949219 172.730469 175.949219 172.402344 C 175.949219 172.078125 175.996094 171.777344 176.089844 171.5 C 176.179688 171.222656 176.308594 170.96875 176.472656 170.734375 C 176.632812 170.503906 176.816406 170.289062 177.023438 170.09375 C 177.226562 169.898438 177.445312 169.726562 177.671875 169.574219 C 177.175781 169.226562 176.804688 168.847656 176.5625 168.441406 C 176.316406 168.035156 176.195312 167.539062 176.195312 166.953125 C 176.195312 166.53125 176.277344 166.125 176.445312 165.742188 C 176.613281 165.355469 176.855469 165.015625 177.167969 164.722656 C 177.480469 164.429688 177.859375 164.199219 178.304688 164.023438 C 178.75 163.851562 179.242188 163.761719 179.78125 163.761719 C 180.421875 163.761719 180.964844 163.855469 181.414062 164.039062 C 181.863281 164.226562 182.230469 164.464844 182.515625 164.757812 C 182.804688 165.050781 183.011719 165.375 183.140625 165.730469 C 183.273438 166.089844 183.335938 166.4375 183.335938 166.773438 C 183.335938 167.371094 183.175781 167.898438 182.851562 168.359375 C 182.523438 168.820312 182.152344 169.1875 181.730469 169.457031 C 182.367188 169.804688 182.84375 170.207031 183.148438 170.664062 C 183.457031 171.117188 183.613281 171.65625 183.613281 172.273438 " fill-opacity="1" fill-rule="nonzero"/><path fill="#cecdd0" d="M 210.214844 178.128906 L 193.308594 178.128906 L 193.308594 161.179688 L 210.214844 161.179688 L 210.214844 178.128906 " fill-opacity="1" fill-rule="nonzero"/><path fill="#3f5267" d="M 201.875 169.5625 C 202.1875 169.5625 202.496094 169.535156 202.800781 169.476562 C 203.101562 169.414062 203.363281 169.324219 203.578125 169.207031 C 203.589844 169.085938 203.59375 168.984375 203.59375 168.898438 C 203.59375 168.808594 203.59375 168.734375 203.59375 168.667969 C 203.59375 168.234375 203.566406 167.828125 203.503906 167.441406 C 203.445312 167.054688 203.34375 166.71875 203.195312 166.433594 C 203.050781 166.144531 202.851562 165.917969 202.597656 165.75 C 202.34375 165.582031 202.027344 165.496094 201.644531 165.496094 C 201.332031 165.496094 201.066406 165.5625 200.84375 165.691406 C 200.621094 165.820312 200.441406 165.992188 200.300781 166.195312 C 200.160156 166.402344 200.054688 166.625 199.992188 166.863281 C 199.925781 167.101562 199.894531 167.335938 199.894531 167.5625 C 199.894531 168.226562 200.050781 168.722656 200.371094 169.058594 C 200.691406 169.394531 201.191406 169.5625 201.875 169.5625 Z M 203.414062 170.75 C 203.15625 170.871094 202.871094 170.964844 202.554688 171.027344 C 202.242188 171.09375 201.9375 171.125 201.644531 171.125 C 200.976562 171.125 200.40625 171.035156 199.933594 170.859375 C 199.464844 170.679688 199.082031 170.429688 198.78125 170.109375 C 198.484375 169.789062 198.265625 169.417969 198.125 168.996094 C 197.984375 168.570312 197.914062 168.117188 197.914062 167.628906 C 197.914062 167.203125 197.984375 166.773438 198.125 166.335938 C 198.265625 165.894531 198.488281 165.492188 198.789062 165.121094 C 199.09375 164.753906 199.476562 164.453125 199.945312 164.21875 C 200.40625 163.988281 200.960938 163.867188 201.597656 163.867188 C 202.917969 163.867188 203.917969 164.296875 204.59375 165.148438 C 205.269531 165.996094 205.605469 167.199219 205.605469 168.75 C 205.605469 170.941406 205.042969 172.601562 203.921875 173.730469 C 202.792969 174.859375 201.066406 175.425781 198.742188 175.4375 L 198.660156 173.792969 C 199.308594 173.792969 199.898438 173.742188 200.421875 173.632812 C 200.945312 173.523438 201.40625 173.351562 201.800781 173.113281 C 202.195312 172.871094 202.527344 172.5625 202.800781 172.175781 C 203.070312 171.789062 203.273438 171.316406 203.414062 170.75 " fill-opacity="1" fill-rule="nonzero"/><path fill="#cecdd0" d="M 188.234375 244.226562 L 171.328125 244.226562 L 171.328125 227.28125 L 188.234375 227.28125 L 188.234375 244.226562 " fill-opacity="1" fill-rule="nonzero"/><path fill="#3f5267" d="M 181.082031 235.761719 C 181.082031 236.140625 180.953125 236.449219 180.699219 236.6875 C 180.445312 236.925781 180.140625 237.046875 179.78125 237.046875 C 179.414062 237.046875 179.105469 236.925781 178.859375 236.6875 C 178.609375 236.449219 178.484375 236.140625 178.484375 235.761719 C 178.484375 235.382812 178.609375 235.070312 178.859375 234.824219 C 179.105469 234.582031 179.414062 234.460938 179.78125 234.460938 C 180.140625 234.460938 180.445312 234.582031 180.699219 234.824219 C 180.953125 235.070312 181.082031 235.382812 181.082031 235.761719 " fill-opacity="1" fill-rule="nonzero"/><path fill="#cecdd0" d="M 210.214844 244.226562 L 193.308594 244.226562 L 193.308594 227.28125 L 210.214844 227.28125 L 210.214844 244.226562 " fill-opacity="1" fill-rule="nonzero"/><path fill="#3f5267" d="M 197.996094 236.679688 L 205.523438 236.679688 L 205.523438 238.339844 L 197.996094 238.339844 Z M 197.996094 233.164062 L 205.523438 233.164062 L 205.523438 234.824219 L 197.996094 234.824219 L 197.996094 233.164062 " fill-opacity="1" fill-rule="nonzero"/><path fill="#f0c252" d="M 232.191406 178.128906 L 215.285156 178.128906 L 215.285156 161.179688 L 232.191406 161.179688 L 232.191406 178.128906 " fill-opacity="1" fill-rule="nonzero"/><path fill="#3f5267" d="M 219.972656 168.824219 L 222.863281 168.824219 L 222.863281 165.636719 L 224.617188 165.636719 L 224.617188 168.824219 L 227.503906 168.824219 L 227.503906 170.484375 L 224.617188 170.484375 L 224.617188 173.671875 L 222.863281 173.671875 L 222.863281 170.484375 L 219.972656 170.484375 L 219.972656 168.824219 " fill-opacity="1" fill-rule="nonzero"/><path fill="#d84f52" d="M 232.191406 200.226562 L 215.285156 200.226562 L 215.285156 183.277344 L 232.191406 183.277344 L 232.191406 200.226562 " fill-opacity="1" fill-rule="nonzero"/><path fill="#3f5267" d="M 219.972656 190.851562 L 227.503906 190.851562 L 227.503906 192.65625 L 219.972656 192.65625 L 219.972656 190.851562 " fill-opacity="1" fill-rule="nonzero"/><path fill="#dc7e2c" d="M 232.191406 222.195312 L 215.285156 222.195312 L 215.285156 205.246094 L 232.191406 205.246094 L 232.191406 222.195312 " fill-opacity="1" fill-rule="nonzero"/><path fill="#3f5267" d="M 226.027344 210.265625 L 227.179688 211.433594 L 224.894531 213.730469 L 227.179688 216.007812 L 226.027344 217.179688 L 223.738281 214.882812 L 221.453125 217.179688 L 220.300781 216.007812 L 222.585938 213.730469 L 220.300781 211.433594 L 221.453125 210.265625 L 223.738281 212.558594 L 226.027344 210.265625 " fill-opacity="1" fill-rule="nonzero"/><path fill="#55c498" d="M 232.242188 244.292969 L 215.335938 244.292969 L 215.335938 227.347656 L 232.242188 227.347656 L 232.242188 244.292969 " fill-opacity="1" fill-rule="nonzero"/><path fill="#3f5267" d="M 224.972656 239.039062 C 224.972656 239.410156 224.855469 239.695312 224.617188 239.902344 C 224.378906 240.109375 224.101562 240.210938 223.789062 240.210938 C 223.472656 240.210938 223.203125 240.109375 222.96875 239.902344 C 222.734375 239.695312 222.621094 239.410156 222.621094 239.039062 C 222.621094 238.660156 222.734375 238.367188 222.96875 238.160156 C 223.203125 237.957031 223.472656 237.851562 223.789062 237.851562 C 224.101562 237.851562 224.378906 237.957031 224.617188 238.160156 C 224.855469 238.367188 224.972656 238.660156 224.972656 239.039062 Z M 224.972656 232.597656 C 224.972656 232.976562 224.855469 233.269531 224.617188 233.476562 C 224.378906 233.683594 224.101562 233.785156 223.789062 233.785156 C 223.472656 233.785156 223.203125 233.683594 222.96875 233.476562 C 222.734375 233.269531 222.621094 232.976562 222.621094 232.597656 C 222.621094 232.226562 222.734375 231.941406 222.96875 231.734375 C 223.203125 231.527344 223.472656 231.425781 223.789062 231.425781 C 224.101562 231.425781 224.378906 231.527344 224.617188 231.734375 C 224.855469 231.941406 224.972656 232.226562 224.972656 232.597656 Z M 220.023438 234.988281 L 227.550781 234.988281 L 227.550781 236.648438 L 220.023438 236.648438 L 220.023438 234.988281 " fill-opacity="1" fill-rule="nonzero"/><g fill="#deffa2" fill-opacity="1"><g transform="translate(107.967547, 251.680049)"><g><path d="M 12.746094 6.132812 C 10.503906 4.367188 7.5 0.632812 11.390625 -1.246094 C 14.027344 -2.523438 17.484375 -1.703125 19.019531 0.8125 C 20.410156 3.121094 23.816406 0.664062 22.425781 -1.644531 C 19.636719 -6.226562 12.910156 -7.277344 8.515625 -4.417969 C 6.277344 -2.976562 5.015625 -0.511719 5.300781 2.183594 C 5.648438 5.246094 7.816406 7.582031 10.109375 9.417969 C 12.246094 11.085938 14.875 7.84375 12.746094 6.132812 Z M 12.746094 6.132812 "/></g></g></g><g fill="#deffa2" fill-opacity="1"><g transform="translate(120.961049, 268.781112)"><g><path d="M 18.957031 0.695312 C 20.539062 -1.160156 24.796875 -5.914062 20.546875 -7.402344 C 17.789062 -8.367188 13.921875 -7.160156 11.375 -6.070312 C 7.957031 -4.566406 4.984375 -2.390625 2.054688 -0.132812 C -0.0898438 1.511719 2.132812 5.054688 4.277344 3.410156 C 5.410156 2.546875 6.558594 1.660156 7.726562 0.835938 L 10.71875 3.789062 C 10.003906 4.652344 9.269531 5.5 8.554688 6.324219 C 6.765625 8.371094 9.867188 11.199219 11.636719 9.136719 C 14.082031 6.328125 16.550781 3.542969 18.957031 0.695312 Z M 11.832031 -1.671875 C 13.015625 -2.261719 14.300781 -2.757812 15.574219 -3.074219 C 16.023438 -3.191406 16.476562 -3.273438 16.910156 -3.332031 C 16.554688 -2.898438 16.15625 -2.503906 15.855469 -2.132812 C 15.085938 -1.207031 14.292969 -0.300781 13.484375 0.628906 C 12.78125 -0.0507812 12.09375 -0.753906 11.390625 -1.433594 C 11.542969 -1.519531 11.679688 -1.585938 11.832031 -1.671875 Z M 11.832031 -1.671875 "/></g></g></g><g fill="#deffa2" fill-opacity="1"><g transform="translate(136.945993, 282.647817)"><g><path d="M 14.152344 0.3125 C 12.1875 -0.660156 10.179688 -1.5 8.121094 -2.203125 C 10.195312 -4.976562 12.246094 -7.761719 14.296875 -10.550781 C 15.886719 -12.730469 12.28125 -14.878906 10.6875 -12.699219 C 8.09375 -9.160156 5.472656 -5.636719 2.878906 -2.097656 C 2.054688 -0.992188 2.925781 0.667969 4.132812 0.992188 C 6.867188 1.710938 9.484375 2.679688 12.003906 3.921875 C 14.414062 5.125 16.585938 1.53125 14.152344 0.3125 Z M 14.152344 0.3125 "/></g></g></g><g fill="#deffa2" fill-opacity="1"><g transform="translate(155.022547, 292.859133)"><g><path d="M 13.953125 -2.3125 C 11.105469 -2.46875 6.496094 -3.796875 8.601562 -7.570312 C 10.019531 -10.132812 13.320312 -11.449219 16.027344 -10.277344 C 18.492188 -9.1875 19.867188 -13.15625 17.398438 -14.246094 C 12.480469 -16.390625 6.375 -13.378906 4.425781 -8.511719 C 3.421875 -6.042969 3.808594 -3.304688 5.59375 -1.265625 C 7.636719 1.042969 10.757812 1.707031 13.683594 1.886719 C 16.394531 2.023438 16.679688 -2.140625 13.953125 -2.3125 Z M 13.953125 -2.3125 "/></g></g></g><g fill="#deffa2" fill-opacity="1"><g transform="translate(175.555661, 299.456767)"><g><path d="M 18.109375 -13.898438 C 18.085938 -16.550781 13.917969 -17.074219 13.9375 -14.390625 C 13.964844 -11.289062 12.917969 -6.253906 9.480469 -5.082031 C 5.78125 -3.828125 7.210938 -13.777344 7.519531 -15.433594 C 8.03125 -18.078125 3.859375 -18.546875 3.351562 -15.925781 C 2.460938 -11.269531 1.683594 -0.394531 9.140625 -0.777344 C 15.183594 -1.078125 18.15625 -8.820312 18.109375 -13.898438 Z M 18.109375 -13.898438 "/></g></g></g><g fill="#deffa2" fill-opacity="1"><g transform="translate(198.380737, 301.507381)"><g><path d="M 11.613281 -8.09375 C 9.453125 -7.722656 7.335938 -7.214844 5.261719 -6.566406 C 5.300781 -10.03125 5.3125 -13.492188 5.324219 -16.949219 C 5.324219 -19.652344 1.144531 -19.257812 1.144531 -16.558594 C 1.132812 -12.171875 1.097656 -7.78125 1.085938 -3.390625 C 1.078125 -2.011719 2.757812 -1.1875 3.925781 -1.632812 C 6.554688 -2.667969 9.238281 -3.425781 12.003906 -3.910156 C 14.664062 -4.359375 14.296875 -8.542969 11.613281 -8.09375 Z M 11.613281 -8.09375 "/></g></g></g><g fill="#deffa2" fill-opacity="1"><g transform="translate(218.984757, 299.084793)"><g><path d="M 10.265625 -15.953125 C 9.472656 -18.257812 7.554688 -24.347656 4.109375 -21.453125 C 1.871094 -19.570312 0.9375 -15.625 0.578125 -12.878906 C 0.128906 -9.171875 0.484375 -5.503906 0.933594 -1.835938 C 1.253906 0.847656 5.4375 0.742188 5.117188 -1.941406 C 4.949219 -3.355469 4.773438 -4.792969 4.65625 -6.222656 L 8.722656 -7.289062 C 9.105469 -6.234375 9.457031 -5.171875 9.804688 -4.132812 C 10.648438 -1.550781 14.667969 -2.777344 13.792969 -5.351562 C 12.625 -8.886719 11.484375 -12.433594 10.265625 -15.953125 Z M 4.59375 -11.03125 C 4.691406 -12.351562 4.917969 -13.707031 5.296875 -14.964844 C 5.421875 -15.414062 5.585938 -15.84375 5.753906 -16.246094 C 5.945312 -15.71875 6.082031 -15.175781 6.246094 -14.726562 C 6.652344 -13.59375 7.03125 -12.449219 7.417969 -11.28125 C 6.472656 -11.019531 5.519531 -10.789062 4.574219 -10.527344 C 4.578125 -10.707031 4.589844 -10.855469 4.59375 -11.03125 Z M 4.59375 -11.03125 "/></g></g></g><g fill="#deffa2" fill-opacity="1"><g transform="translate(239.08945, 292.412074)"><g><path d="M 1.925781 -23.011719 C -0.988281 -21.863281 -3.742188 -20.421875 -6.34375 -18.644531 C -8.542969 -17.121094 -6.550781 -13.425781 -4.328125 -14.960938 C -3.632812 -15.4375 -2.945312 -15.878906 -2.25 -16.292969 C -0.507812 -12.585938 1.273438 -8.867188 3.015625 -5.160156 C 4.160156 -2.722656 7.84375 -4.738281 6.699219 -7.179688 C 4.957031 -10.886719 3.203125 -14.554688 1.460938 -18.261719 C 2.273438 -18.640625 3.101562 -18.996094 3.941406 -19.328125 C 6.460938 -20.324219 4.417969 -23.996094 1.925781 -23.011719 Z M 1.925781 -23.011719 "/></g></g></g><g fill="#deffa2" fill-opacity="1"><g transform="translate(257.522321, 281.818092)"><g><path d="M 0.0585938 -23.652344 C -4.152344 -24.996094 -8.988281 -21.421875 -9.242188 -17.15625 C -9.808594 -13.324219 -6.285156 -8.632812 -3.5 -6.714844 C -1.589844 -5.410156 1.074219 -4.609375 3.285156 -5.566406 C 5.59375 -6.535156 7.011719 -8.917969 7.414062 -11.3125 C 7.804688 -13.765625 7.167969 -16.289062 5.863281 -18.386719 C 4.558594 -20.441406 2.46875 -22.886719 0.0585938 -23.652344 Z M 3.363281 -12.089844 C 3.335938 -11.992188 3.328125 -11.914062 3.320312 -11.792969 C 3.140625 -10.636719 2.265625 -9.46875 1.070312 -9.390625 C 0.3125 -9.324219 -0.394531 -9.710938 -1.019531 -10.132812 C -2.023438 -10.855469 -2.890625 -11.769531 -3.59375 -12.792969 C -4.222656 -13.730469 -4.949219 -14.992188 -5.070312 -16.109375 C -5.160156 -17.109375 -4.75 -18.132812 -4.007812 -18.816406 C -2.71875 -19.976562 -1.101562 -19.824219 0.113281 -18.726562 C 1.984375 -17.085938 3.601562 -14.671875 3.363281 -12.089844 Z M 3.363281 -12.089844 "/></g></g></g><g fill="#deffa2" fill-opacity="1"><g transform="translate(274.712395, 266.067797)"><g><path d="M 7.242188 -14.40625 C 4.640625 -14.402344 2.082031 -14.085938 -0.417969 -13.417969 C -0.382812 -15.265625 -0.835938 -17.160156 -1.808594 -18.53125 C -3.757812 -21.273438 -7.976562 -20.820312 -9.78125 -18.117188 C -11.675781 -15.238281 -10.441406 -11.523438 -8.296875 -9.191406 C -5.523438 -6.15625 -2.066406 -3.625 1.050781 -0.964844 C 3.089844 0.804688 5.570312 -2.585938 3.53125 -4.355469 C 1.847656 -5.796875 0.160156 -7.238281 -1.507812 -8.699219 C 1.160156 -9.695312 3.945312 -10.226562 6.828125 -10.234375 C 9.492188 -10.226562 9.964844 -14.425781 7.242188 -14.40625 Z M -5.332031 -16.183594 C -4.90625 -16.007812 -4.746094 -14.328125 -4.695312 -13.875 C -4.613281 -13.089844 -4.628906 -12.40625 -4.988281 -11.769531 C -5.324219 -12.117188 -5.640625 -12.488281 -5.886719 -12.910156 C -6.203125 -13.382812 -7.101562 -16.988281 -5.332031 -16.183594 Z M -5.332031 -16.183594 "/></g></g></g><g fill="#deffa2" fill-opacity="1"><g transform="translate(120.52624, 116.753999)"><g><path d="M -9.417969 -19.214844 L 0.148438 -0.167969 L 3.5625 -3.988281 L 2.136719 -6.722656 L 6.59375 -11.714844 L 9.472656 -10.609375 L 13.070312 -14.640625 L -7.140625 -21.765625 Z M -2.371094 -15.253906 L 1.8125 -13.546875 L 2.136719 -13.40625 L -0.0273438 -10.984375 L -0.25 -11.40625 Z M -2.371094 -15.253906 "/></g></g></g><g fill="#deffa2" fill-opacity="1"><g transform="translate(134.614547, 101.50825)"><g><path d="M -10.300781 -16.730469 L 1.136719 -0.816406 L 11.710938 -8.414062 L 9.011719 -12.164062 L 2.328125 -7.363281 L -6.414062 -19.527344 Z M -10.300781 -16.730469 "/></g></g></g><g fill="#deffa2" fill-opacity="1"><g transform="translate(148.334063, 91.815125)"><g><path d="M -6.828125 -18.421875 L 1.273438 -0.578125 L 13.128906 -5.960938 L 11.21875 -10.167969 L 3.722656 -6.765625 L -2.46875 -20.402344 Z M -6.828125 -18.421875 "/></g></g></g><g fill="#deffa2" fill-opacity="1"><g transform="translate(164.151986, 85.128362)"><g/></g></g><g fill="#deffa2" fill-opacity="1"><g transform="translate(172.503211, 82.507569)"><g><path d="M 6.726562 -20.65625 L -0.839844 -19.796875 L 1.390625 -0.15625 L 6.121094 -0.695312 L 5.371094 -7.289062 L 6.152344 -7.375 L 10.960938 -1.246094 L 16.023438 -1.820312 L 15.921875 -2.710938 L 11.046875 -8.410156 C 13.46875 -9.925781 14.4375 -12.570312 14.167969 -14.9375 C 13.800781 -18.164062 11.179688 -21.164062 6.726562 -20.65625 Z M 7.609375 -11.910156 L 4.882812 -11.601562 L 4.410156 -15.773438 L 7.132812 -16.082031 C 8.582031 -16.246094 9.425781 -15.242188 9.542969 -14.214844 C 9.65625 -13.210938 9.027344 -12.070312 7.609375 -11.910156 Z M 7.609375 -11.910156 "/></g></g></g><g fill="#deffa2" fill-opacity="1"><g transform="translate(190.383832, 80.22028)"><g><path d="M 2.710938 -9.496094 C 1.945312 -3.777344 5.875 1.070312 11.421875 1.8125 C 16.972656 2.554688 22.078125 -1.167969 22.832031 -6.804688 C 23.59375 -12.519531 19.652344 -17.453125 14.101562 -18.195312 C 8.550781 -18.9375 3.476562 -15.210938 2.710938 -9.496094 Z M 7.429688 -8.863281 C 7.921875 -12.554688 10.828125 -14.003906 13.492188 -13.644531 C 16.15625 -13.289062 18.546875 -11.105469 18.058594 -7.441406 C 17.570312 -3.804688 14.632812 -2.335938 11.96875 -2.691406 C 9.304688 -3.046875 6.9375 -5.199219 7.429688 -8.863281 Z M 7.429688 -8.863281 "/></g></g></g><g fill="#deffa2" fill-opacity="1"><g transform="translate(214.143115, 83.844354)"><g><path d="M 8.253906 3.636719 C 11.734375 5.039062 16.03125 4.421875 17.675781 0.34375 L 22.65625 -11.984375 L 18.214844 -13.777344 L 13.246094 -1.472656 C 12.703125 -0.125 11.132812 0.0273438 9.832031 -0.496094 C 8.5625 -1.011719 7.5625 -2.199219 8.105469 -3.550781 L 13.078125 -15.855469 L 8.636719 -17.648438 L 3.65625 -5.316406 C 1.988281 -1.1875 4.722656 2.210938 8.253906 3.636719 Z M 8.253906 3.636719 "/></g></g></g><g fill="#deffa2" fill-opacity="1"><g transform="translate(231.770344, 91.089002)"><g><path d="M 20.9375 -9.308594 L 15.339844 -1.265625 L 15.375 -13.175781 L 12.34375 -15.289062 L 1.148438 0.800781 L 5.054688 3.519531 L 10.507812 -4.320312 L 10.550781 7.339844 L 13.628906 9.480469 L 24.820312 -6.605469 Z M 20.9375 -9.308594 "/></g></g></g><g fill="#deffa2" fill-opacity="1"><g transform="translate(247.477556, 102.05634)"><g><path d="M 20.714844 -6.234375 L 15.527344 -12.039062 L 0.914062 1.023438 L 6.101562 6.824219 C 10.410156 11.648438 16.207031 10.820312 19.859375 7.558594 C 23.515625 4.292969 25.023438 -1.414062 20.714844 -6.234375 Z M 9.503906 3.785156 L 7.488281 1.53125 L 15.316406 -5.46875 L 17.332031 -3.210938 C 19.53125 -0.75 18.628906 2.3125 16.707031 4.027344 C 14.789062 5.746094 11.707031 6.246094 9.503906 3.785156 Z M 9.503906 3.785156 "/></g></g></g><g fill="#ffffff" fill-opacity="1"><g transform="translate(98.994841, 196.224215)"><g><path d="M 8.429688 0.257812 L 8.429688 -8.957031 L 8.269531 -8.957031 L 8.269531 -3.550781 L 3.359375 -8.957031 L 0.800781 -8.957031 L 0.800781 0 L 0.960938 0 L 0.960938 -7.679688 Z M 8.429688 0.257812 "/></g></g></g><g fill="#ffffff" fill-opacity="1"><g transform="translate(110.048623, 196.224215)"><g><path d="M 0.800781 0 L 3.214844 0 L 3.214844 -3.984375 L 4.398438 -3.984375 C 6.878906 -3.984375 8.574219 -4.910156 8.574219 -6.480469 C 8.574219 -8.09375 6.6875 -8.957031 4.414062 -8.957031 L 0.800781 -8.957031 Z M 3.214844 -4.144531 L 3.214844 -8.796875 L 4.0625 -8.796875 C 5.3125 -8.796875 5.773438 -8.09375 5.773438 -6.542969 C 5.773438 -4.910156 5.3125 -4.160156 3.953125 -4.160156 Z M 3.214844 -4.144531 "/></g></g></g><g fill="#ffffff" fill-opacity="1"><g transform="translate(120.686505, 196.224215)"><g><path d="M 4.671875 0.175781 L 8.398438 -8.558594 L 8.398438 0 L 10.8125 0 L 10.8125 -8.957031 L 8.398438 -8.957031 L 6.03125 -3.3125 L 3.441406 -8.957031 L 0.800781 -8.957031 L 0.800781 0 L 0.960938 0 L 0.960938 -8.589844 Z M 4.671875 0.175781 "/></g></g></g><g fill="#ffffff" fill-opacity="1"><g transform="translate(249.443777, 195.674212)"><g><path d="M 5.652344 -9.558594 C 4.800781 -9.894531 3.792969 -10.035156 2.925781 -9.710938 C 1.929688 -9.335938 1.582031 -8.496094 1.46875 -7.5 C 1.175781 -4.996094 0.953125 -2.476562 0.699219 0.0273438 C 0.558594 1.371094 2.660156 1.371094 2.800781 0.0273438 C 2.910156 -1.035156 3.007812 -2.097656 3.121094 -3.148438 C 4.941406 -2.730469 7.027344 -3.402344 7.863281 -5.179688 C 8.789062 -7.109375 7.429688 -8.84375 5.652344 -9.558594 Z M 3.34375 -5.277344 C 3.386719 -5.667969 3.414062 -6.074219 3.457031 -6.464844 C 3.484375 -6.757812 3.441406 -7.25 3.570312 -7.5 C 3.695312 -7.765625 3.539062 -7.710938 3.847656 -7.796875 C 4.5625 -8.003906 6.144531 -7.207031 6.074219 -6.394531 C 5.976562 -5.109375 4.269531 -4.996094 3.34375 -5.277344 Z M 3.34375 -5.277344 "/></g></g></g><g fill="#ffffff" fill-opacity="1"><g transform="translate(259.910844, 195.674212)"><g><path d="M 7.234375 -6.128906 C 7.195312 -7.347656 7.164062 -10.539062 5.09375 -9.65625 C 3.75 -9.082031 2.730469 -7.332031 2.15625 -6.074219 C 1.398438 -4.367188 1.035156 -2.5625 0.714844 -0.742188 C 0.476562 0.585938 2.492188 1.148438 2.730469 -0.183594 C 2.855469 -0.882812 2.980469 -1.59375 3.136719 -2.296875 L 5.234375 -2.210938 C 5.261719 -1.652344 5.277344 -1.089844 5.289062 -0.546875 C 5.316406 0.8125 7.417969 0.8125 7.375 -0.546875 C 7.332031 -2.40625 7.304688 -4.269531 7.234375 -6.128906 Z M 3.804688 -4.605469 C 4.042969 -5.21875 4.351562 -5.835938 4.714844 -6.382812 C 4.84375 -6.578125 4.980469 -6.757812 5.121094 -6.925781 C 5.136719 -6.648438 5.121094 -6.367188 5.136719 -6.128906 C 5.164062 -5.527344 5.179688 -4.925781 5.191406 -4.308594 C 4.703125 -4.324219 4.210938 -4.351562 3.722656 -4.367188 C 3.75 -4.449219 3.777344 -4.519531 3.804688 -4.605469 Z M 3.804688 -4.605469 "/></g></g></g><g fill="#ffffff" fill-opacity="1"><g transform="translate(269.594346, 195.674212)"><g><path d="M 6.214844 -3.371094 C 4.84375 -2.980469 2.449219 -2.855469 2.828125 -4.980469 C 3.078125 -6.421875 4.421875 -7.585938 5.890625 -7.472656 C 7.234375 -7.363281 7.234375 -9.460938 5.890625 -9.574219 C 3.21875 -9.78125 0.824219 -7.363281 0.699219 -4.746094 C 0.628906 -3.414062 1.257812 -2.183594 2.433594 -1.511719 C 3.777344 -0.753906 5.359375 -0.953125 6.773438 -1.34375 C 8.074219 -1.722656 7.53125 -3.738281 6.214844 -3.371094 Z M 6.214844 -3.371094 "/></g></g></g><g fill="#ffffff" fill-opacity="1"><g transform="translate(279.417774, 195.674212)"><g><path d="M 6.984375 -8.832031 C 7.667969 -10.007812 5.851562 -11.054688 5.179688 -9.894531 C 4.730469 -9.140625 4.101562 -7.949219 3.273438 -7.460938 C 3.316406 -8.367188 3.34375 -9.265625 3.34375 -10.175781 C 3.359375 -11.53125 1.257812 -11.53125 1.246094 -10.175781 C 1.230469 -7.5 1.0625 -4.828125 0.714844 -2.183594 C 0.628906 -1.625 0.839844 -1.0625 1.441406 -0.894531 C 1.929688 -0.753906 2.660156 -1.0625 2.730469 -1.625 C 2.898438 -2.800781 3.023438 -3.960938 3.121094 -5.136719 C 3.847656 -4.464844 4.308594 -3.539062 4.394531 -2.546875 C 4.519531 -1.21875 6.621094 -1.203125 6.492188 -2.546875 C 6.367188 -3.945312 5.851562 -5.179688 4.980469 -6.1875 C 5.808594 -6.914062 6.4375 -7.894531 6.984375 -8.832031 Z M 6.984375 -8.832031 "/></g></g></g><g fill="#ffffff" fill-opacity="1"><g transform="translate(288.849427, 195.674212)"><g><path d="M 7.234375 -6.128906 C 7.195312 -7.347656 7.164062 -10.539062 5.09375 -9.65625 C 3.75 -9.082031 2.730469 -7.332031 2.15625 -6.074219 C 1.398438 -4.367188 1.035156 -2.5625 0.714844 -0.742188 C 0.476562 0.585938 2.492188 1.148438 2.730469 -0.183594 C 2.855469 -0.882812 2.980469 -1.59375 3.136719 -2.296875 L 5.234375 -2.210938 C 5.261719 -1.652344 5.277344 -1.089844 5.289062 -0.546875 C 5.316406 0.8125 7.417969 0.8125 7.375 -0.546875 C 7.332031 -2.40625 7.304688 -4.269531 7.234375 -6.128906 Z M 3.804688 -4.605469 C 4.042969 -5.21875 4.351562 -5.835938 4.714844 -6.382812 C 4.84375 -6.578125 4.980469 -6.757812 5.121094 -6.925781 C 5.136719 -6.648438 5.121094 -6.367188 5.136719 -6.128906 C 5.164062 -5.527344 5.179688 -4.925781 5.191406 -4.308594 C 4.703125 -4.324219 4.210938 -4.351562 3.722656 -4.367188 C 3.75 -4.449219 3.777344 -4.519531 3.804688 -4.605469 Z M 3.804688 -4.605469 "/></g></g></g><g fill="#ffffff" fill-opacity="1"><g transform="translate(298.532931, 195.674212)"><g><path d="M 6.355469 -5.851562 C 5.332031 -5.820312 3.371094 -5.722656 3.945312 -4.113281 C 4.253906 -3.234375 5.332031 -3.234375 5.808594 -3.738281 C 5.878906 -3.738281 5.949219 -3.738281 6.003906 -3.738281 C 6.03125 -3.738281 6.058594 -3.738281 6.074219 -3.738281 C 6.058594 -3.640625 6.058594 -3.554688 6.03125 -3.5 C 5.960938 -3.316406 5.851562 -3.136719 5.710938 -2.996094 C 5.023438 -2.296875 3.371094 -2.6875 2.953125 -3.554688 C 2.070312 -5.386719 4.210938 -8.984375 6.410156 -8.230469 C 7.683594 -7.78125 8.242188 -9.796875 6.96875 -10.246094 C 1.902344 -12.023438 -2.210938 -2.363281 3.34375 -0.796875 C 4.492188 -0.476562 5.738281 -0.417969 6.730469 -1.121094 C 7.640625 -1.761719 8.199219 -2.867188 8.257812 -3.960938 C 8.300781 -5.261719 7.597656 -5.863281 6.355469 -5.851562 Z M 6.355469 -5.851562 "/></g></g></g><g fill="#ffffff" fill-opacity="1"><g transform="translate(309.083954, 195.674212)"><g><path d="M 5.835938 -2.96875 C 4.871094 -3.007812 3.90625 -2.96875 2.953125 -2.882812 C 3.023438 -3.414062 3.105469 -3.945312 3.175781 -4.476562 C 3.652344 -4.476562 4.128906 -4.464844 4.605469 -4.410156 C 5.179688 -4.351562 5.652344 -4.925781 5.652344 -5.457031 C 5.652344 -6.074219 5.179688 -6.453125 4.605469 -6.507812 C 4.242188 -6.550781 3.875 -6.5625 3.5 -6.578125 C 3.582031 -7.109375 3.679688 -7.65625 3.765625 -8.199219 C 4.476562 -8.199219 5.179688 -8.171875 5.890625 -8.132812 C 7.234375 -8.03125 7.234375 -10.132812 5.890625 -10.230469 C 4.882812 -10.300781 3.863281 -10.3125 2.855469 -10.273438 C 2.464844 -10.273438 2.183594 -10.078125 2.015625 -9.808594 C 1.945312 -9.699219 1.890625 -9.558594 1.863281 -9.40625 C 1.398438 -6.828125 1.023438 -4.253906 0.699219 -1.679688 C 0.601562 -0.921875 1.441406 -0.574219 2.027344 -0.65625 C 3.289062 -0.867188 4.5625 -0.921875 5.835938 -0.867188 C 7.179688 -0.8125 7.179688 -2.910156 5.835938 -2.96875 Z M 5.835938 -2.96875 "/></g></g></g></svg>